# xmcd
#
# Track frame offsets:
#	150
#	15995
#	29000
#	45972
#	65287
#	82175
#	99640
#	113227
#	126642
#	138140
#	156542
#	171917
#	186367
#
# Disc length: 2710 seconds
#
# Revision: 1
# Processed by: cddbd v1.5.2PL0 Copyright (c) Steve Scherf et al.
# Submitted via: audiograbber 1.83.01
#
DISCID=b40a940d
DTITLE=Dusty Boots (Muotatal) - Muotathal Mountain Man
DYEAR=98
DGENRE=
TTITLE0=Toss A Little Bone
TTITLE1=Guitars and Cadillacs
TTITLE2=Muotathal Mountain Man
TTITLE3=The Pain
TTITLE4=All You Ever Do Is Bring Me Down
TTITLE5=Midnight Train
TTITLE6=Such A Rhythm
TTITLE7=Little Room Song
TTITLE8=Dinero
TTITLE9=Boom-Bapa-Boom
TTITLE10=Where'm I Gonna Live?
TTITLE11=Muota Canyon Express
TTITLE12=Achy Breaky Heart
EXTD=
EXTT0=
EXTT1=
EXTT2=
EXTT3=
EXTT4=
EXTT5=
EXTT6=
EXTT7=
EXTT8=
EXTT9=
EXTT10=
EXTT11=
EXTT12=
PLAYORDER=
